<svg width="70" height="10" viewBox="0 0 70 10" fill="none" xmlns="http://www.w3.org/2000/svg">
<g clip-path="url(#clip0)">
<path d="M18.6423 6.78813C18.6381 7.42737 18.434 8.04928 18.0585 8.56662C17.6723 9.0673 17.1415 9.43701 16.538 9.62554C16.2382 9.71589 15.9278 9.76612 15.6148 9.77495H11.4876V6.38105e-07H15.384C15.6702 -0.00243671 15.9548 0.0434714 16.2258 0.135789C16.7924 0.294618 17.2865 0.644795 17.6241 1.12678C17.9879 1.60293 18.188 2.18398 18.1943 2.78317C18.1961 3.37545 17.9949 3.95045 17.6241 4.41233C17.6095 4.4375 17.5911 4.46037 17.5698 4.48018C17.7465 4.6434 17.9099 4.82048 18.0585 5.00972C18.4416 5.52311 18.6466 6.14757 18.6423 6.78813V6.78813ZM13.3611 1.72425V3.80132H15.479C15.717 3.74073 15.9305 3.60794 16.09 3.42119C16.2448 3.24533 16.3273 3.01732 16.3207 2.78309C16.3153 2.52331 16.2193 2.27359 16.0492 2.07715C15.9135 1.90058 15.5877 1.7241 15.3704 1.7241L13.3611 1.72425ZM16.4294 5.87854C16.3223 5.76404 16.1915 5.67433 16.0461 5.6157C15.9007 5.55706 15.7442 5.53092 15.5877 5.53911H13.3611V8.03716H15.5877C15.881 8.02768 16.1608 7.91188 16.3751 7.71134C16.6467 7.48054 16.7688 7.14111 16.7824 6.78813C16.7893 6.45026 16.6624 6.12334 16.4294 5.87854V5.87854ZM19.4242 3.80132C19.4649 3.74708 19.5192 3.65199 19.5735 3.58421C20.2387 2.64738 21.2433 2.25371 22.4516 2.25371C23.7956 2.25371 24.8818 2.7017 25.4791 3.7063C25.7379 4.15156 25.8738 4.65758 25.8729 5.17259V9.77495H24.2573V8.52592C24.1215 8.91967 23.6735 9.32688 23.3477 9.51691C22.8271 9.81478 22.2369 9.96938 21.6371 9.96498C20.9175 9.96498 20.1708 9.612 19.7771 9.1504C19.397 8.62094 19.2069 8.25442 19.2069 7.61625C19.2069 6.82883 19.6957 6.05503 20.3881 5.64774C21.2026 5.21329 21.7729 5.19967 22.8182 5.0368L23.9994 4.87386C23.9609 4.72923 23.8927 4.59419 23.7992 4.47733C23.7057 4.36047 23.5889 4.26434 23.4563 4.19507C23.1368 4.02044 22.7742 3.94039 22.4109 3.96426C21.9358 3.96426 21.542 4.07289 21.257 4.41225C21.1998 4.46951 21.1497 4.53332 21.1076 4.60236L19.4242 3.80132ZM22.6823 6.61165C21.8949 6.76098 21.0668 6.9103 21.0396 7.49408C21.0124 7.92853 21.4061 8.30866 22.0035 8.28158C22.7774 8.25434 23.7142 7.87421 23.945 6.99178C24.0015 6.78353 24.0334 6.56937 24.04 6.35369L22.6823 6.61165ZM31.5096 2.45728V4.16791C31.0586 4.00168 30.5765 3.93681 30.0976 3.97788C29.5681 4.01858 29.188 4.20861 28.93 4.48018C28.6042 4.83316 28.4549 5.32192 28.4549 5.86492V9.77495H26.5948V2.44374H28.224V3.44834C28.4131 3.11438 28.6841 2.83406 29.0115 2.63377C29.399 2.40365 29.8374 2.27305 30.2877 2.25363C30.705 2.22924 31.1225 2.29884 31.5094 2.45728H31.5096ZM39.1449 6.10934C39.1449 7.11395 38.9141 8.05078 38.2896 8.81104C37.6922 9.55769 36.7282 9.97859 35.7645 9.97859C34.9497 9.97859 34.2167 9.76133 33.6465 9.32696V9.77495H32.0173V6.38105e-07H33.8773V2.7424C34.4181 2.41561 35.0375 2.24198 35.6694 2.24009C36.6876 2.24009 37.665 2.63384 38.2896 3.40765C38.8598 4.12721 39.1449 5.09112 39.1449 6.10934V6.10934ZM37.1899 6.10934C37.1899 5.48487 37.0541 4.91463 36.7962 4.5345C36.484 4.05935 36.0087 3.88287 35.3978 3.88287C34.8955 3.88287 34.461 4.04574 34.1624 4.39879C33.8094 4.806 33.6465 5.44409 33.6465 6.10934C33.6465 6.77459 33.8093 7.42622 34.1624 7.81997C34.4882 8.17295 34.9363 8.33589 35.4657 8.33589C35.9816 8.33589 36.511 8.15941 36.8233 7.68419C37.0813 7.30405 37.1899 6.73382 37.1899 6.10934V6.10934ZM39.6661 3.80132C39.7068 3.74708 39.7611 3.65199 39.8153 3.58421C40.4806 2.64738 41.4853 2.25371 42.6936 2.25371C44.0376 2.25371 45.1237 2.7017 45.721 3.7063C45.9799 4.15156 46.1157 4.65758 46.1148 5.17259V9.77495H44.4993V8.52592C44.3635 8.91967 43.9155 9.32688 43.5896 9.51691C43.069 9.81477 42.4788 9.96937 41.879 9.96498C41.1595 9.96498 40.4127 9.612 40.0191 9.1504C39.6389 8.62094 39.4489 8.25442 39.4489 7.61625C39.4489 6.82883 39.9376 6.05503 40.63 5.64774C41.4446 5.21329 42.0147 5.19967 43.0602 5.0368L44.2413 4.87386C44.2028 4.72923 44.1347 4.5942 44.0412 4.47733C43.9477 4.36047 43.8309 4.26435 43.6983 4.19507C43.3788 4.02043 43.0162 3.94037 42.6528 3.96426C42.1777 3.96426 41.7839 4.07289 41.4988 4.41233C41.4417 4.46957 41.3916 4.53336 41.3495 4.60236L39.6661 3.80132ZM42.9244 6.61165C42.1369 6.76098 41.3088 6.9103 41.2816 7.49408C41.2545 7.92853 41.6482 8.30866 42.2455 8.28158C43.0194 8.25434 43.9562 7.87421 44.187 6.99178C44.2435 6.78353 44.2754 6.56937 44.282 6.35369L42.9244 6.61165Z" fill="white"/>
<path d="M52.5803 9.7754C53.0191 9.7754 53.3748 9.41971 53.3748 8.98094C53.3748 8.54218 53.0191 8.18649 52.5803 8.18649C52.1416 8.18649 51.7859 8.54218 51.7859 8.98094C51.7859 9.41971 52.1416 9.7754 52.5803 9.7754Z" fill="#EC008C"/>
<path d="M51.2132 8.98094C51.2131 8.76343 51.265 8.54906 51.3645 8.35563C51.464 8.1622 51.6081 7.99529 51.7851 7.86878C51.962 7.74227 52.1666 7.65979 52.3818 7.62821C52.597 7.59663 52.8166 7.61686 53.0224 7.68721C53.0325 6.99911 52.7231 6.42108 52.1615 5.98717C51.6863 5.59342 51.3333 5.51194 50.7223 5.32192C50.3558 5.2269 49.9349 5.11827 49.5684 5.00964C49.2019 4.90101 48.9032 4.77891 48.7945 4.64313C48.7714 4.59166 48.7576 4.53648 48.7538 4.48018C48.7538 4.39871 48.7945 4.27654 48.9982 4.14075C49.1882 4.03219 49.4733 3.97788 49.7992 3.97788C50.0736 3.97302 50.3447 4.03844 50.5866 4.1679C50.8501 4.30803 51.0529 4.53991 51.1568 4.81961L52.9489 4.38517C52.6706 3.61709 52.1132 2.98207 51.3876 2.60668C50.9031 2.36384 50.3683 2.23827 49.8263 2.24009C49.2777 2.21446 48.7304 2.31188 48.2243 2.52521C47.4504 2.86464 46.8803 3.59774 46.8803 4.52088C46.8866 4.81095 46.9582 5.09587 47.0898 5.35443C47.2215 5.613 47.4097 5.83856 47.6405 6.01432C48.0207 6.31298 48.428 6.48947 49.0932 6.66596C49.5005 6.77459 49.8806 6.8696 50.2744 6.97823C50.5187 7.04609 50.8581 7.15472 51.0346 7.33121C51.0776 7.37324 51.1109 7.42421 51.132 7.48052C51.1531 7.53682 51.1616 7.59708 51.1568 7.65702C51.1404 7.79072 51.0721 7.91262 50.9667 7.99646C50.7495 8.17294 50.2744 8.2408 49.9349 8.2408C49.4869 8.2408 49.0389 8.17294 48.7131 7.81989C48.5094 7.61632 48.3736 7.20903 48.3736 6.99177L46.6223 7.42622C46.6495 7.80635 47.0568 8.62093 47.3962 9.00106C48.075 9.72063 48.9303 9.97859 49.9349 9.97859C50.472 9.97859 50.9876 9.92147 51.4523 9.75331C51.2961 9.52603 51.2128 9.25668 51.2132 8.98094V8.98094Z" fill="white"/>
<path d="M56.1217 7.79273C56.0455 7.57326 55.89 7.39022 55.6858 7.27961C55.5341 7.20126 55.3654 7.16146 55.1947 7.16372C55.0259 7.15742 54.858 7.18949 54.7035 7.25752C54.6279 7.2902 54.5627 7.34297 54.5151 7.4101C54.4674 7.47723 54.4391 7.55614 54.4331 7.63826C54.4299 7.69302 54.4391 7.74781 54.4601 7.79847C54.4812 7.84914 54.5134 7.89436 54.5545 7.93072C54.6428 8.00795 54.7366 8.05758 54.9629 8.12385C55.1063 8.16795 55.305 8.21765 55.5699 8.28936C55.7805 8.33891 55.978 8.43298 56.1493 8.56525C56.2498 8.63697 56.3298 8.73386 56.3811 8.8462C56.4324 8.95855 56.4533 9.08242 56.4417 9.20539C56.4286 9.32464 56.3891 9.43948 56.3261 9.54159C56.2631 9.64371 56.1782 9.73054 56.0775 9.79582C55.8458 9.94485 55.5367 9.99447 55.2443 9.99447C54.858 9.99447 54.4994 9.87858 54.2566 9.61373C54.0957 9.41795 53.9874 9.18433 53.9421 8.93502L54.2566 8.85226C54.2857 9.05388 54.3675 9.24423 54.4939 9.40404C54.6815 9.60821 54.9629 9.68545 55.2332 9.68545C55.4705 9.68545 55.7409 9.63575 55.8954 9.5309C55.9547 9.4916 56.0043 9.43945 56.0406 9.37831C56.0769 9.31717 56.099 9.24862 56.1052 9.17777C56.1134 9.10671 56.103 9.03473 56.0749 8.96893C56.0468 8.90313 56.0021 8.84579 55.9451 8.80256C55.8458 8.71428 55.7354 8.66458 55.465 8.58734C55.2874 8.53317 55.109 8.48167 54.9298 8.43287C54.72 8.37212 54.527 8.32242 54.3449 8.17899C54.2655 8.11336 54.2019 8.03065 54.1589 7.93702C54.1159 7.84339 54.0946 7.74127 54.0966 7.63826C54.0966 7.35133 54.3062 7.09193 54.5711 6.97052C54.7711 6.88435 54.9881 6.84475 55.2056 6.8547C55.4218 6.85347 55.6353 6.90258 55.8292 6.99813C56.1176 7.15006 56.3369 7.4068 56.4417 7.7155L56.1217 7.79273ZM57.6997 8.87427C57.6997 9.12815 57.6886 9.27158 57.7659 9.40404C57.799 9.47358 57.8504 9.53286 57.9145 9.57561C57.9786 9.61835 58.0531 9.64298 58.13 9.64687C58.2958 9.66472 58.4632 9.65727 58.6267 9.62478V9.91723C58.4351 9.96212 58.2368 9.97145 58.0418 9.94477C57.7824 9.90067 57.5838 9.78477 57.4734 9.55851C57.3796 9.35986 57.3851 9.15569 57.3851 8.88532V7.22439H56.6954V6.93746H57.3851V6.10972H57.6997V6.93746H58.6267V7.22439H57.6997V8.87427ZM61.6836 6.93746V9.91723H61.3911V9.49232C61.3456 9.56278 61.2919 9.6276 61.2312 9.68545C61.0235 9.86933 60.758 9.97474 60.4807 9.98343C60.1991 10.0035 59.919 9.92761 59.686 9.76821C59.2502 9.45919 59.1673 8.95151 59.1784 8.39421V6.93746H59.4985V8.39421C59.4985 8.88532 59.5481 9.28262 59.8848 9.51986C60.063 9.63553 60.2742 9.6898 60.4862 9.6744C60.69 9.67132 60.8859 9.59492 61.038 9.45919C61.1921 9.31662 61.2933 9.12598 61.325 8.91845C61.3547 8.76583 61.3677 8.6104 61.3636 8.45496V6.93746H61.6836ZM65.0108 5.9442V9.91723H64.7239V9.40404C64.7073 9.43165 64.6908 9.45926 64.6743 9.48127C64.5601 9.64655 64.4064 9.78061 64.2271 9.87122C64.0478 9.96183 63.8487 10.0061 63.6479 9.99999C63.45 10.005 63.2536 9.96369 63.0745 9.87938C62.8953 9.79508 62.7383 9.6701 62.616 9.51441C62.3677 9.19986 62.296 8.80256 62.296 8.42182C62.296 8.04661 62.3732 7.64378 62.616 7.33476C62.7343 7.18186 62.8868 7.05879 63.0612 6.97542C63.2356 6.89205 63.4271 6.85071 63.6203 6.8547C63.8236 6.85005 64.0251 6.89363 64.2083 6.98186C64.3915 7.07009 64.5512 7.20046 64.6743 7.3623L64.6908 7.38446V5.94412L65.0108 5.9442ZM64.7239 8.42182C64.7239 8.09071 64.6577 7.75968 64.4701 7.52237C64.288 7.27402 63.99 7.1582 63.6755 7.1582C63.5224 7.15202 63.37 7.18231 63.2309 7.24659C63.0918 7.31087 62.9699 7.40728 62.8754 7.52789C62.6933 7.7652 62.6325 8.09623 62.6325 8.42182C62.6325 8.74741 62.6933 9.07845 62.8754 9.31576C62.9717 9.43379 63.0928 9.52912 63.2302 9.59492C63.3676 9.66073 63.5178 9.6954 63.6701 9.69645C63.8224 9.69751 63.9731 9.66492 64.1114 9.60103C64.2496 9.53713 64.3721 9.44349 64.47 9.3268C64.6576 9.08949 64.7239 8.75286 64.7239 8.42182V8.42182ZM66.1586 5.97733V6.38016H65.8385V5.97733H66.1586ZM66.1586 6.93746V9.91723H65.8385V6.93746H66.1586ZM67.1462 9.51441C66.8979 9.19986 66.8206 8.80808 66.8206 8.42182C66.8206 8.04661 66.9034 7.64931 67.1462 7.33476C67.275 7.17976 67.4372 7.05601 67.6207 6.97285C67.8043 6.88969 68.0043 6.84929 68.2057 6.8547C68.6251 6.8547 69.0169 7.00917 69.2651 7.33476C69.5189 7.64931 69.5962 8.04661 69.5962 8.42182C69.5962 8.80808 69.5189 9.19986 69.2651 9.51441C69.0113 9.84552 68.6361 9.99999 68.2057 9.99999C68.0036 10.0064 67.8027 9.96587 67.6189 9.88163C67.4351 9.79738 67.2733 9.67168 67.1462 9.51441V9.51441ZM69.2541 8.42182C69.2541 8.10183 69.1989 7.77072 69.0113 7.52789C68.9145 7.40884 68.7913 7.31396 68.6515 7.25075C68.5116 7.18755 68.359 7.15775 68.2057 7.16372C67.8911 7.16372 67.5876 7.28514 67.4111 7.52789C67.2235 7.77072 67.1628 8.10176 67.1628 8.42182C67.1628 8.74741 67.2235 9.07845 67.4111 9.32128C67.5053 9.44084 67.6263 9.53658 67.7643 9.6008C67.9024 9.66501 68.0535 9.6959 68.2057 9.69097C68.3594 9.69594 68.5122 9.66513 68.652 9.60098C68.7918 9.53682 68.9148 9.44107 69.0113 9.32128C69.1989 9.07845 69.2542 8.74741 69.2542 8.42182H69.2541Z" fill="#EC008C"/>
<path d="M10.1517 0.328844C10.0397 -0.241846 9.93988 0.187003 9.88738 0.428548C9.73351 1.1351 9.39884 2.59557 9.18483 2.97071C8.88527 3.49601 8.64735 3.79693 8.18514 4.14719C8.03339 3.63875 7.50076 3.24788 7.05526 3.02487C6.79655 2.89528 6.54176 2.80594 6.32851 2.69459C6.14355 2.6001 5.29213 2.18737 5.09961 2.42226V3.86562C5.26778 4.14681 5.95398 4.27715 6.43192 4.30234C7.05466 4.33472 7.23606 4.84224 7.30853 5.36716C7.36467 5.77529 6.92258 6.46247 6.43018 6.24347C6.07698 6.08643 5.73399 5.68368 5.43269 5.49539C5.33012 5.44169 5.2153 5.41572 5.09961 5.42004V9.79954C5.42921 9.79464 5.756 9.73805 6.06806 9.63183C6.58579 9.46562 7.08355 9.24267 7.55227 8.96703C8.53494 8.38628 9.34597 7.531 9.67526 6.63503C9.90599 6.00669 9.90448 5.2698 10.003 4.61106C10.0791 4.10286 10.0655 3.55622 10.0914 3.03001C10.1178 2.49465 10.2771 0.9686 10.1517 0.328844V0.328844Z" fill="#AB0066"/>
<path d="M4.76659 5.49539C4.46521 5.68375 4.12229 6.08643 3.76909 6.24347C3.27662 6.46247 2.83469 5.77529 2.89067 5.36716C2.96314 4.84217 3.14462 4.33472 3.76743 4.30234C4.24537 4.27722 4.93165 4.14681 5.09959 3.86562V2.42226C4.90722 2.18737 4.05572 2.60018 3.87076 2.69459C3.65751 2.80594 3.40265 2.89536 3.14401 3.02487C2.69844 3.24796 2.16588 3.63875 2.01413 4.14726C1.55177 3.79693 1.31401 3.49601 1.01437 2.97071C0.800357 2.59549 0.465766 1.1351 0.311898 0.428548C0.259322 0.187003 0.159467 -0.241846 0.0476587 0.328844C-0.0778416 0.968525 0.081549 2.49465 0.107799 3.03001C0.133822 3.55622 0.120281 4.10286 0.196307 4.61106C0.294801 5.2698 0.293439 6.00677 0.524015 6.63503C0.853311 7.531 1.66426 8.38628 2.64693 8.96703C3.11568 9.24266 3.61347 9.46561 4.13122 9.63183C4.44327 9.73805 4.77007 9.79464 5.09967 9.79954V5.42004C4.984 5.41573 4.86921 5.4417 4.76666 5.49539H4.76659Z" fill="#EC008C"/>
</g>
<defs>
<clipPath id="clip0">
<rect width="69.5963" height="10" fill="white"/>
</clipPath>
</defs>
</svg>
